<svg xmlns="http://www.w3.org/2000/svg" xmlns:xlink="http://www.w3.org/1999/xlink" width="500" zoomAndPan="magnify" viewBox="0 0 375 374.999991" height="500" preserveAspectRatio="xMidYMid meet" version="1.0"><defs><g/><clipPath id="beb22338dc"><path d="M 55 153.558594 L 83 153.558594 L 83 175 L 55 175 Z M 55 153.558594 " clip-rule="nonzero"/></clipPath><clipPath id="9eb1af68ee"><path d="M 29.632812 229 L 52 229 L 52 254.808594 L 29.632812 254.808594 Z M 29.632812 229 " clip-rule="nonzero"/></clipPath></defs><g fill="#ffffff" fill-opacity="1"><g transform="translate(120.717018, 194.978046)"><g><path d="M 2.875 0 L 2.875 -24.921875 L 19.5625 -24.921875 L 19.5625 -20.203125 L 8.484375 -20.203125 L 8.484375 -15 L 18.34375 -15 L 18.34375 -10.28125 L 8.484375 -10.28125 L 8.484375 0 Z M 2.875 0 "/></g></g></g><g fill="#ffffff" fill-opacity="1"><g transform="translate(141.349134, 194.978046)"><g><path d="M 2.515625 -19.734375 C 3.210938 -20.023438 3.9375 -20.351562 4.6875 -20.71875 C 5.445312 -21.09375 6.1875 -21.5 6.90625 -21.9375 C 7.625 -22.382812 8.3125 -22.851562 8.96875 -23.34375 C 9.625 -23.84375 10.21875 -24.367188 10.75 -24.921875 L 14.484375 -24.921875 L 14.484375 0 L 9.125 0 L 9.125 -17.9375 C 8.40625 -17.457031 7.601562 -17.019531 6.71875 -16.625 C 5.832031 -16.226562 4.972656 -15.890625 4.140625 -15.609375 Z M 2.515625 -19.734375 "/></g></g></g><g fill="#ffffff" fill-opacity="1"><g transform="translate(161.76559, 194.978046)"><g/></g></g><g fill="#ffffff" fill-opacity="1"><g transform="translate(170.392258, 194.978046)"><g><path d="M 14.234375 0.5 C 10.179688 0.5 7.09375 -0.625 4.96875 -2.875 C 2.851562 -5.125 1.796875 -8.320312 1.796875 -12.46875 C 1.796875 -14.53125 2.117188 -16.367188 2.765625 -17.984375 C 3.410156 -19.609375 4.296875 -20.976562 5.421875 -22.09375 C 6.554688 -23.207031 7.898438 -24.050781 9.453125 -24.625 C 11.015625 -25.195312 12.707031 -25.484375 14.53125 -25.484375 C 15.582031 -25.484375 16.539062 -25.40625 17.40625 -25.25 C 18.269531 -25.09375 19.023438 -24.910156 19.671875 -24.703125 C 20.316406 -24.503906 20.851562 -24.296875 21.28125 -24.078125 C 21.71875 -23.867188 22.03125 -23.703125 22.21875 -23.578125 L 20.59375 -19.0625 C 19.832031 -19.46875 18.941406 -19.8125 17.921875 -20.09375 C 16.898438 -20.382812 15.742188 -20.53125 14.453125 -20.53125 C 13.585938 -20.53125 12.738281 -20.382812 11.90625 -20.09375 C 11.082031 -19.8125 10.351562 -19.351562 9.71875 -18.71875 C 9.082031 -18.082031 8.570312 -17.257812 8.1875 -16.25 C 7.8125 -15.238281 7.625 -14.015625 7.625 -12.578125 C 7.625 -11.429688 7.75 -10.359375 8 -9.359375 C 8.25 -8.367188 8.65625 -7.515625 9.21875 -6.796875 C 9.78125 -6.078125 10.515625 -5.503906 11.421875 -5.078125 C 12.335938 -4.660156 13.441406 -4.453125 14.734375 -4.453125 C 15.554688 -4.453125 16.289062 -4.5 16.9375 -4.59375 C 17.582031 -4.695312 18.15625 -4.8125 18.65625 -4.9375 C 19.164062 -5.070312 19.609375 -5.222656 19.984375 -5.390625 C 20.367188 -5.554688 20.71875 -5.710938 21.03125 -5.859375 L 22.578125 -1.359375 C 21.785156 -0.878906 20.671875 -0.445312 19.234375 -0.0625 C 17.796875 0.3125 16.128906 0.5 14.234375 0.5 Z M 14.234375 0.5 "/></g></g></g><g fill="#ffffff" fill-opacity="1"><g transform="translate(193.684265, 194.978046)"><g><path d="M 7.59375 -12.46875 C 7.59375 -11.25 7.738281 -10.144531 8.03125 -9.15625 C 8.332031 -8.175781 8.765625 -7.332031 9.328125 -6.625 C 9.890625 -5.925781 10.578125 -5.382812 11.390625 -5 C 12.210938 -4.613281 13.148438 -4.421875 14.203125 -4.421875 C 15.234375 -4.421875 16.160156 -4.613281 16.984375 -5 C 17.816406 -5.382812 18.515625 -5.925781 19.078125 -6.625 C 19.640625 -7.332031 20.066406 -8.175781 20.359375 -9.15625 C 20.660156 -10.144531 20.8125 -11.25 20.8125 -12.46875 C 20.8125 -13.695312 20.660156 -14.804688 20.359375 -15.796875 C 20.066406 -16.796875 19.640625 -17.648438 19.078125 -18.359375 C 18.515625 -19.066406 17.816406 -19.609375 16.984375 -19.984375 C 16.160156 -20.367188 15.234375 -20.5625 14.203125 -20.5625 C 13.148438 -20.5625 12.210938 -20.363281 11.390625 -19.96875 C 10.578125 -19.570312 9.890625 -19.019531 9.328125 -18.3125 C 8.765625 -17.601562 8.332031 -16.75 8.03125 -15.75 C 7.738281 -14.757812 7.59375 -13.664062 7.59375 -12.46875 Z M 26.609375 -12.46875 C 26.609375 -10.34375 26.289062 -8.46875 25.65625 -6.84375 C 25.019531 -5.226562 24.148438 -3.875 23.046875 -2.78125 C 21.941406 -1.695312 20.628906 -0.878906 19.109375 -0.328125 C 17.585938 0.222656 15.953125 0.5 14.203125 0.5 C 12.503906 0.5 10.898438 0.222656 9.390625 -0.328125 C 7.878906 -0.878906 6.554688 -1.695312 5.421875 -2.78125 C 4.296875 -3.875 3.410156 -5.226562 2.765625 -6.84375 C 2.117188 -8.46875 1.796875 -10.34375 1.796875 -12.46875 C 1.796875 -14.601562 2.128906 -16.476562 2.796875 -18.09375 C 3.472656 -19.71875 4.378906 -21.082031 5.515625 -22.1875 C 6.648438 -23.289062 7.96875 -24.113281 9.46875 -24.65625 C 10.96875 -25.207031 12.546875 -25.484375 14.203125 -25.484375 C 15.898438 -25.484375 17.503906 -25.207031 19.015625 -24.65625 C 20.523438 -24.113281 21.84375 -23.289062 22.96875 -22.1875 C 24.09375 -21.082031 24.976562 -19.71875 25.625 -18.09375 C 26.28125 -16.476562 26.609375 -14.601562 26.609375 -12.46875 Z M 26.609375 -12.46875 "/></g></g></g><g fill="#ffffff" fill-opacity="1"><g transform="translate(222.080391, 194.978046)"><g><path d="M 9.484375 -24.921875 C 9.921875 -24.128906 10.421875 -23.148438 10.984375 -21.984375 C 11.546875 -20.816406 12.128906 -19.554688 12.734375 -18.203125 C 13.347656 -16.847656 13.953125 -15.460938 14.546875 -14.046875 C 15.148438 -12.640625 15.71875 -11.3125 16.25 -10.0625 C 16.78125 -11.3125 17.34375 -12.640625 17.9375 -14.046875 C 18.539062 -15.460938 19.144531 -16.847656 19.75 -18.203125 C 20.363281 -19.554688 20.953125 -20.816406 21.515625 -21.984375 C 22.078125 -23.148438 22.578125 -24.128906 23.015625 -24.921875 L 28.109375 -24.921875 C 28.347656 -23.265625 28.570312 -21.410156 28.78125 -19.359375 C 28.988281 -17.304688 29.164062 -15.171875 29.3125 -12.953125 C 29.46875 -10.742188 29.613281 -8.523438 29.75 -6.296875 C 29.882812 -4.066406 30 -1.96875 30.09375 0 L 24.625 0 C 24.550781 -2.414062 24.453125 -5.050781 24.328125 -7.90625 C 24.210938 -10.757812 24.035156 -13.632812 23.796875 -16.53125 C 23.367188 -15.53125 22.890625 -14.414062 22.359375 -13.1875 C 21.835938 -11.96875 21.316406 -10.742188 20.796875 -9.515625 C 20.285156 -8.296875 19.789062 -7.128906 19.3125 -6.015625 C 18.832031 -4.898438 18.421875 -3.945312 18.078125 -3.15625 L 14.171875 -3.15625 C 13.828125 -3.945312 13.414062 -4.898438 12.9375 -6.015625 C 12.457031 -7.128906 11.957031 -8.296875 11.4375 -9.515625 C 10.925781 -10.742188 10.40625 -11.96875 9.875 -13.1875 C 9.351562 -14.414062 8.878906 -15.53125 8.453125 -16.53125 C 8.210938 -13.632812 8.03125 -10.757812 7.90625 -7.90625 C 7.789062 -5.050781 7.695312 -2.414062 7.625 0 L 2.15625 0 C 2.25 -1.96875 2.363281 -4.066406 2.5 -6.296875 C 2.632812 -8.523438 2.773438 -10.742188 2.921875 -12.953125 C 3.078125 -15.171875 3.257812 -17.304688 3.46875 -19.359375 C 3.675781 -21.410156 3.898438 -23.265625 4.140625 -24.921875 Z M 9.484375 -24.921875 "/></g></g></g><g fill="#ffffff" fill-opacity="1"><g transform="translate(254.322569, 194.978046)"><g><path d="M 10.359375 -25.203125 C 14.066406 -25.203125 16.914062 -24.546875 18.90625 -23.234375 C 20.894531 -21.929688 21.890625 -19.796875 21.890625 -16.828125 C 21.890625 -13.828125 20.882812 -11.660156 18.875 -10.328125 C 16.863281 -9.003906 13.988281 -8.34375 10.25 -8.34375 L 8.484375 -8.34375 L 8.484375 0 L 2.875 0 L 2.875 -24.5625 C 4.09375 -24.800781 5.382812 -24.96875 6.75 -25.0625 C 8.125 -25.15625 9.328125 -25.203125 10.359375 -25.203125 Z M 10.71875 -20.421875 C 10.3125 -20.421875 9.910156 -20.40625 9.515625 -20.375 C 9.117188 -20.351562 8.773438 -20.332031 8.484375 -20.3125 L 8.484375 -13.125 L 10.25 -13.125 C 12.1875 -13.125 13.644531 -13.382812 14.625 -13.90625 C 15.613281 -14.4375 16.109375 -15.421875 16.109375 -16.859375 C 16.109375 -17.554688 15.984375 -18.128906 15.734375 -18.578125 C 15.484375 -19.035156 15.125 -19.398438 14.65625 -19.671875 C 14.1875 -19.953125 13.613281 -20.144531 12.9375 -20.25 C 12.269531 -20.363281 11.53125 -20.421875 10.71875 -20.421875 Z M 10.71875 -20.421875 "/></g></g></g><g fill="#ffffff" fill-opacity="1"><g transform="translate(277.470799, 194.978046)"><g><path d="M 12.625 0.5 C 10.875 0.5 9.363281 0.253906 8.09375 -0.234375 C 6.820312 -0.722656 5.769531 -1.40625 4.9375 -2.28125 C 4.113281 -3.15625 3.503906 -4.195312 3.109375 -5.40625 C 2.710938 -6.613281 2.515625 -7.953125 2.515625 -9.421875 L 2.515625 -24.921875 L 8.125 -24.921875 L 8.125 -9.890625 C 8.125 -8.878906 8.238281 -8.019531 8.46875 -7.3125 C 8.695312 -6.601562 9.007812 -6.023438 9.40625 -5.578125 C 9.800781 -5.140625 10.28125 -4.820312 10.84375 -4.625 C 11.40625 -4.4375 12.019531 -4.34375 12.6875 -4.34375 C 14.050781 -4.34375 15.160156 -4.757812 16.015625 -5.59375 C 16.867188 -6.4375 17.296875 -7.867188 17.296875 -9.890625 L 17.296875 -24.921875 L 22.90625 -24.921875 L 22.90625 -9.421875 C 22.90625 -7.953125 22.695312 -6.609375 22.28125 -5.390625 C 21.875 -4.171875 21.25 -3.125 20.40625 -2.25 C 19.570312 -1.375 18.507812 -0.695312 17.21875 -0.21875 C 15.925781 0.257812 14.394531 0.5 12.625 0.5 Z M 12.625 0.5 "/></g></g></g><g fill="#ffffff" fill-opacity="1"><g transform="translate(302.883533, 194.978046)"><g><path d="M 21.359375 -24.921875 L 21.359375 -20.140625 L 13.84375 -20.140625 L 13.84375 0 L 8.234375 0 L 8.234375 -20.140625 L 0.71875 -20.140625 L 0.71875 -24.921875 Z M 21.359375 -24.921875 "/></g></g></g><g fill="#ffffff" fill-opacity="1"><g transform="translate(324.953428, 194.978046)"><g><path d="M 2.875 0 L 2.875 -24.921875 L 19.703125 -24.921875 L 19.703125 -20.203125 L 8.484375 -20.203125 L 8.484375 -15.3125 L 18.4375 -15.3125 L 18.4375 -10.71875 L 8.484375 -10.71875 L 8.484375 -4.703125 L 20.53125 -4.703125 L 20.53125 0 Z M 2.875 0 "/></g></g></g><g fill="#ffffff" fill-opacity="1"><g transform="translate(346.735772, 194.978046)"><g><path d="M 10.171875 -25.203125 C 13.910156 -25.203125 16.773438 -24.535156 18.765625 -23.203125 C 20.753906 -21.878906 21.75 -19.8125 21.75 -17 C 21.75 -15.25 21.347656 -13.828125 20.546875 -12.734375 C 19.742188 -11.648438 18.585938 -10.796875 17.078125 -10.171875 C 17.578125 -9.546875 18.101562 -8.832031 18.65625 -8.03125 C 19.207031 -7.226562 19.753906 -6.390625 20.296875 -5.515625 C 20.835938 -4.640625 21.359375 -3.726562 21.859375 -2.78125 C 22.359375 -1.832031 22.828125 -0.90625 23.265625 0 L 16.96875 0 C 16.507812 -0.8125 16.046875 -1.632812 15.578125 -2.46875 C 15.117188 -3.3125 14.640625 -4.128906 14.140625 -4.921875 C 13.648438 -5.710938 13.164062 -6.460938 12.6875 -7.171875 C 12.207031 -7.878906 11.726562 -8.519531 11.25 -9.09375 L 8.484375 -9.09375 L 8.484375 0 L 2.875 0 L 2.875 -24.5625 C 4.09375 -24.800781 5.351562 -24.96875 6.65625 -25.0625 C 7.96875 -25.15625 9.140625 -25.203125 10.171875 -25.203125 Z M 10.5 -20.421875 C 10.09375 -20.421875 9.726562 -20.40625 9.40625 -20.375 C 9.082031 -20.351562 8.773438 -20.332031 8.484375 -20.3125 L 8.484375 -13.546875 L 10.0625 -13.546875 C 12.175781 -13.546875 13.6875 -13.8125 14.59375 -14.34375 C 15.507812 -14.875 15.96875 -15.773438 15.96875 -17.046875 C 15.96875 -18.265625 15.503906 -19.128906 14.578125 -19.640625 C 13.648438 -20.160156 12.289062 -20.421875 10.5 -20.421875 Z M 10.5 -20.421875 "/></g></g></g><g fill="#5271ff" fill-opacity="1"><g transform="translate(158.946915, 213.720619)"><g><path d="M 6.515625 -0.6875 L 6.515625 0 L 1.21875 0 L 1.21875 -7.484375 L 6.34375 -7.484375 L 6.34375 -6.796875 L 2.015625 -6.796875 L 2.015625 -4.140625 L 5.875 -4.140625 L 5.875 -3.46875 L 2.015625 -3.46875 L 2.015625 -0.6875 Z M 6.515625 -0.6875 "/></g></g></g><g fill="#5271ff" fill-opacity="1"><g transform="translate(174.65433, 213.720619)"><g><path d="M 1.21875 -7.484375 L 2.015625 -7.484375 L 2.015625 -0.6875 L 6.203125 -0.6875 L 6.203125 0 L 1.21875 0 Z M 1.21875 -7.484375 "/></g></g></g><g fill="#5271ff" fill-opacity="1"><g transform="translate(189.506631, 213.720619)"><g><path d="M 6.515625 -0.6875 L 6.515625 0 L 1.21875 0 L 1.21875 -7.484375 L 6.34375 -7.484375 L 6.34375 -6.796875 L 2.015625 -6.796875 L 2.015625 -4.140625 L 5.875 -4.140625 L 5.875 -3.46875 L 2.015625 -3.46875 L 2.015625 -0.6875 Z M 6.515625 -0.6875 "/></g></g></g><g fill="#5271ff" fill-opacity="1"><g transform="translate(205.214046, 213.720619)"><g><path d="M 4.46875 0.0625 C 3.726562 0.0625 3.0625 -0.0976562 2.46875 -0.421875 C 1.875 -0.753906 1.40625 -1.207031 1.0625 -1.78125 C 0.726562 -2.363281 0.5625 -3.015625 0.5625 -3.734375 C 0.5625 -4.453125 0.726562 -5.101562 1.0625 -5.6875 C 1.40625 -6.269531 1.875 -6.722656 2.46875 -7.046875 C 3.0625 -7.378906 3.734375 -7.546875 4.484375 -7.546875 C 5.035156 -7.546875 5.546875 -7.453125 6.015625 -7.265625 C 6.484375 -7.078125 6.882812 -6.804688 7.21875 -6.453125 L 6.71875 -5.953125 C 6.125 -6.546875 5.382812 -6.84375 4.5 -6.84375 C 3.90625 -6.84375 3.363281 -6.707031 2.875 -6.4375 C 2.394531 -6.164062 2.019531 -5.789062 1.75 -5.3125 C 1.476562 -4.84375 1.34375 -4.316406 1.34375 -3.734375 C 1.34375 -3.148438 1.476562 -2.625 1.75 -2.15625 C 2.019531 -1.6875 2.394531 -1.316406 2.875 -1.046875 C 3.363281 -0.773438 3.90625 -0.640625 4.5 -0.640625 C 5.394531 -0.640625 6.132812 -0.9375 6.71875 -1.53125 L 7.21875 -1.03125 C 6.882812 -0.675781 6.476562 -0.40625 6 -0.21875 C 5.53125 -0.03125 5.019531 0.0625 4.46875 0.0625 Z M 4.46875 0.0625 "/></g></g></g><g fill="#5271ff" fill-opacity="1"><g transform="translate(221.455916, 213.720619)"><g><path d="M 2.671875 -6.796875 L 0.046875 -6.796875 L 0.046875 -7.484375 L 6.09375 -7.484375 L 6.09375 -6.796875 L 3.46875 -6.796875 L 3.46875 0 L 2.671875 0 Z M 2.671875 -6.796875 "/></g></g></g><g fill="#5271ff" fill-opacity="1"><g transform="translate(236.147877, 213.720619)"><g><path d="M 6.328125 0 L 4.609375 -2.40625 C 4.421875 -2.382812 4.222656 -2.375 4.015625 -2.375 L 2.015625 -2.375 L 2.015625 0 L 1.21875 0 L 1.21875 -7.484375 L 4.015625 -7.484375 C 4.972656 -7.484375 5.722656 -7.253906 6.265625 -6.796875 C 6.804688 -6.335938 7.078125 -5.710938 7.078125 -4.921875 C 7.078125 -4.335938 6.925781 -3.84375 6.625 -3.4375 C 6.332031 -3.03125 5.910156 -2.738281 5.359375 -2.5625 L 7.1875 0 Z M 4 -3.046875 C 4.738281 -3.046875 5.300781 -3.207031 5.6875 -3.53125 C 6.082031 -3.863281 6.28125 -4.328125 6.28125 -4.921875 C 6.28125 -5.523438 6.082031 -5.988281 5.6875 -6.3125 C 5.300781 -6.632812 4.738281 -6.796875 4 -6.796875 L 2.015625 -6.796875 L 2.015625 -3.046875 Z M 4 -3.046875 "/></g></g></g><g fill="#5271ff" fill-opacity="1"><g transform="translate(252.432495, 213.720619)"><g><path d="M 4.484375 0.0625 C 3.742188 0.0625 3.070312 -0.101562 2.46875 -0.4375 C 1.875 -0.769531 1.40625 -1.222656 1.0625 -1.796875 C 0.726562 -2.367188 0.5625 -3.015625 0.5625 -3.734375 C 0.5625 -4.453125 0.726562 -5.097656 1.0625 -5.671875 C 1.40625 -6.253906 1.875 -6.710938 2.46875 -7.046875 C 3.070312 -7.378906 3.742188 -7.546875 4.484375 -7.546875 C 5.222656 -7.546875 5.890625 -7.378906 6.484375 -7.046875 C 7.085938 -6.722656 7.554688 -6.269531 7.890625 -5.6875 C 8.234375 -5.101562 8.40625 -4.453125 8.40625 -3.734375 C 8.40625 -3.015625 8.234375 -2.363281 7.890625 -1.78125 C 7.554688 -1.207031 7.085938 -0.753906 6.484375 -0.421875 C 5.890625 -0.0976562 5.222656 0.0625 4.484375 0.0625 Z M 4.484375 -0.640625 C 5.078125 -0.640625 5.613281 -0.769531 6.09375 -1.03125 C 6.570312 -1.300781 6.945312 -1.671875 7.21875 -2.140625 C 7.488281 -2.617188 7.625 -3.148438 7.625 -3.734375 C 7.625 -4.316406 7.488281 -4.84375 7.21875 -5.3125 C 6.945312 -5.789062 6.570312 -6.164062 6.09375 -6.4375 C 5.613281 -6.707031 5.078125 -6.84375 4.484375 -6.84375 C 3.898438 -6.84375 3.363281 -6.707031 2.875 -6.4375 C 2.394531 -6.164062 2.019531 -5.789062 1.75 -5.3125 C 1.476562 -4.84375 1.34375 -4.316406 1.34375 -3.734375 C 1.34375 -3.148438 1.476562 -2.617188 1.75 -2.140625 C 2.019531 -1.671875 2.394531 -1.300781 2.875 -1.03125 C 3.363281 -0.769531 3.898438 -0.640625 4.484375 -0.640625 Z M 4.484375 -0.640625 "/></g></g></g><g fill="#5271ff" fill-opacity="1"><g transform="translate(269.957033, 213.720619)"><g><path d="M 7.46875 -7.484375 L 7.46875 0 L 6.8125 0 L 2.015625 -6.078125 L 2.015625 0 L 1.21875 0 L 1.21875 -7.484375 L 1.875 -7.484375 L 6.6875 -1.40625 L 6.6875 -7.484375 Z M 7.46875 -7.484375 "/></g></g></g><g fill="#5271ff" fill-opacity="1"><g transform="translate(287.203669, 213.720619)"><g><path d="M 1.21875 -7.484375 L 2.015625 -7.484375 L 2.015625 0 L 1.21875 0 Z M 1.21875 -7.484375 "/></g></g></g><g fill="#5271ff" fill-opacity="1"><g transform="translate(298.98824, 213.720619)"><g><path d="M 4.46875 0.0625 C 3.726562 0.0625 3.0625 -0.0976562 2.46875 -0.421875 C 1.875 -0.753906 1.40625 -1.207031 1.0625 -1.78125 C 0.726562 -2.363281 0.5625 -3.015625 0.5625 -3.734375 C 0.5625 -4.453125 0.726562 -5.101562 1.0625 -5.6875 C 1.40625 -6.269531 1.875 -6.722656 2.46875 -7.046875 C 3.0625 -7.378906 3.734375 -7.546875 4.484375 -7.546875 C 5.035156 -7.546875 5.546875 -7.453125 6.015625 -7.265625 C 6.484375 -7.078125 6.882812 -6.804688 7.21875 -6.453125 L 6.71875 -5.953125 C 6.125 -6.546875 5.382812 -6.84375 4.5 -6.84375 C 3.90625 -6.84375 3.363281 -6.707031 2.875 -6.4375 C 2.394531 -6.164062 2.019531 -5.789062 1.75 -5.3125 C 1.476562 -4.84375 1.34375 -4.316406 1.34375 -3.734375 C 1.34375 -3.148438 1.476562 -2.625 1.75 -2.15625 C 2.019531 -1.6875 2.394531 -1.316406 2.875 -1.046875 C 3.363281 -0.773438 3.90625 -0.640625 4.5 -0.640625 C 5.394531 -0.640625 6.132812 -0.9375 6.71875 -1.53125 L 7.21875 -1.03125 C 6.882812 -0.675781 6.476562 -0.40625 6 -0.21875 C 5.53125 -0.03125 5.019531 0.0625 4.46875 0.0625 Z M 4.46875 0.0625 "/></g></g></g><g fill="#5271ff" fill-opacity="1"><g transform="translate(315.230115, 213.720619)"><g><path d="M 3.28125 0.0625 C 2.726562 0.0625 2.195312 -0.0234375 1.6875 -0.203125 C 1.175781 -0.378906 0.78125 -0.613281 0.5 -0.90625 L 0.8125 -1.515625 C 1.082031 -1.242188 1.441406 -1.023438 1.890625 -0.859375 C 2.335938 -0.691406 2.800781 -0.609375 3.28125 -0.609375 C 3.945312 -0.609375 4.445312 -0.726562 4.78125 -0.96875 C 5.125 -1.21875 5.296875 -1.539062 5.296875 -1.9375 C 5.296875 -2.238281 5.203125 -2.476562 5.015625 -2.65625 C 4.835938 -2.832031 4.613281 -2.96875 4.34375 -3.0625 C 4.082031 -3.15625 3.71875 -3.257812 3.25 -3.375 C 2.6875 -3.519531 2.238281 -3.65625 1.90625 -3.78125 C 1.570312 -3.914062 1.285156 -4.117188 1.046875 -4.390625 C 0.804688 -4.660156 0.6875 -5.03125 0.6875 -5.5 C 0.6875 -5.875 0.785156 -6.210938 0.984375 -6.515625 C 1.179688 -6.828125 1.484375 -7.078125 1.890625 -7.265625 C 2.304688 -7.453125 2.820312 -7.546875 3.4375 -7.546875 C 3.863281 -7.546875 4.28125 -7.484375 4.6875 -7.359375 C 5.101562 -7.242188 5.460938 -7.082031 5.765625 -6.875 L 5.5 -6.25 C 5.175781 -6.457031 4.835938 -6.613281 4.484375 -6.71875 C 4.128906 -6.820312 3.78125 -6.875 3.4375 -6.875 C 2.78125 -6.875 2.285156 -6.742188 1.953125 -6.484375 C 1.628906 -6.234375 1.46875 -5.910156 1.46875 -5.515625 C 1.46875 -5.210938 1.554688 -4.96875 1.734375 -4.78125 C 1.921875 -4.601562 2.148438 -4.46875 2.421875 -4.375 C 2.691406 -4.28125 3.0625 -4.175781 3.53125 -4.0625 C 4.070312 -3.925781 4.507812 -3.789062 4.84375 -3.65625 C 5.1875 -3.53125 5.476562 -3.332031 5.71875 -3.0625 C 5.957031 -2.789062 6.078125 -2.429688 6.078125 -1.984375 C 6.078125 -1.597656 5.972656 -1.25 5.765625 -0.9375 C 5.566406 -0.632812 5.253906 -0.390625 4.828125 -0.203125 C 4.410156 -0.0234375 3.894531 0.0625 3.28125 0.0625 Z M 3.28125 0.0625 "/></g></g></g><g fill="#5271ff" fill-opacity="1"><g transform="translate(211.596005, 227.957064)"><g><path d="M 3.28125 0.0625 C 2.726562 0.0625 2.195312 -0.0234375 1.6875 -0.203125 C 1.175781 -0.378906 0.78125 -0.613281 0.5 -0.90625 L 0.8125 -1.515625 C 1.082031 -1.242188 1.441406 -1.023438 1.890625 -0.859375 C 2.335938 -0.691406 2.800781 -0.609375 3.28125 -0.609375 C 3.945312 -0.609375 4.445312 -0.726562 4.78125 -0.96875 C 5.125 -1.21875 5.296875 -1.539062 5.296875 -1.9375 C 5.296875 -2.238281 5.203125 -2.476562 5.015625 -2.65625 C 4.835938 -2.832031 4.613281 -2.96875 4.34375 -3.0625 C 4.082031 -3.15625 3.71875 -3.257812 3.25 -3.375 C 2.6875 -3.519531 2.238281 -3.65625 1.90625 -3.78125 C 1.570312 -3.914062 1.285156 -4.117188 1.046875 -4.390625 C 0.804688 -4.660156 0.6875 -5.03125 0.6875 -5.5 C 0.6875 -5.875 0.785156 -6.210938 0.984375 -6.515625 C 1.179688 -6.828125 1.484375 -7.078125 1.890625 -7.265625 C 2.304688 -7.453125 2.820312 -7.546875 3.4375 -7.546875 C 3.863281 -7.546875 4.28125 -7.484375 4.6875 -7.359375 C 5.101562 -7.242188 5.460938 -7.082031 5.765625 -6.875 L 5.5 -6.25 C 5.175781 -6.457031 4.835938 -6.613281 4.484375 -6.71875 C 4.128906 -6.820312 3.78125 -6.875 3.4375 -6.875 C 2.78125 -6.875 2.285156 -6.742188 1.953125 -6.484375 C 1.628906 -6.234375 1.46875 -5.910156 1.46875 -5.515625 C 1.46875 -5.210938 1.554688 -4.96875 1.734375 -4.78125 C 1.921875 -4.601562 2.148438 -4.46875 2.421875 -4.375 C 2.691406 -4.28125 3.0625 -4.175781 3.53125 -4.0625 C 4.070312 -3.925781 4.507812 -3.789062 4.84375 -3.65625 C 5.1875 -3.53125 5.476562 -3.332031 5.71875 -3.0625 C 5.957031 -2.789062 6.078125 -2.429688 6.078125 -1.984375 C 6.078125 -1.597656 5.972656 -1.25 5.765625 -0.9375 C 5.566406 -0.632812 5.253906 -0.390625 4.828125 -0.203125 C 4.410156 -0.0234375 3.894531 0.0625 3.28125 0.0625 Z M 3.28125 0.0625 "/></g></g></g><g fill="#5271ff" fill-opacity="1"><g transform="translate(226.726214, 227.957064)"><g><path d="M 7.46875 -7.484375 L 7.46875 0 L 6.6875 0 L 6.6875 -3.453125 L 2.015625 -3.453125 L 2.015625 0 L 1.21875 0 L 1.21875 -7.484375 L 2.015625 -7.484375 L 2.015625 -4.140625 L 6.6875 -4.140625 L 6.6875 -7.484375 Z M 7.46875 -7.484375 "/></g></g></g><g fill="#5271ff" fill-opacity="1"><g transform="translate(243.972846, 227.957064)"><g><path d="M 4.484375 0.0625 C 3.742188 0.0625 3.070312 -0.101562 2.46875 -0.4375 C 1.875 -0.769531 1.40625 -1.222656 1.0625 -1.796875 C 0.726562 -2.367188 0.5625 -3.015625 0.5625 -3.734375 C 0.5625 -4.453125 0.726562 -5.097656 1.0625 -5.671875 C 1.40625 -6.253906 1.875 -6.710938 2.46875 -7.046875 C 3.070312 -7.378906 3.742188 -7.546875 4.484375 -7.546875 C 5.222656 -7.546875 5.890625 -7.378906 6.484375 -7.046875 C 7.085938 -6.722656 7.554688 -6.269531 7.890625 -5.6875 C 8.234375 -5.101562 8.40625 -4.453125 8.40625 -3.734375 C 8.40625 -3.015625 8.234375 -2.363281 7.890625 -1.78125 C 7.554688 -1.207031 7.085938 -0.753906 6.484375 -0.421875 C 5.890625 -0.0976562 5.222656 0.0625 4.484375 0.0625 Z M 4.484375 -0.640625 C 5.078125 -0.640625 5.613281 -0.769531 6.09375 -1.03125 C 6.570312 -1.300781 6.945312 -1.671875 7.21875 -2.140625 C 7.488281 -2.617188 7.625 -3.148438 7.625 -3.734375 C 7.625 -4.316406 7.488281 -4.84375 7.21875 -5.3125 C 6.945312 -5.789062 6.570312 -6.164062 6.09375 -6.4375 C 5.613281 -6.707031 5.078125 -6.84375 4.484375 -6.84375 C 3.898438 -6.84375 3.363281 -6.707031 2.875 -6.4375 C 2.394531 -6.164062 2.019531 -5.789062 1.75 -5.3125 C 1.476562 -4.84375 1.34375 -4.316406 1.34375 -3.734375 C 1.34375 -3.148438 1.476562 -2.617188 1.75 -2.140625 C 2.019531 -1.671875 2.394531 -1.300781 2.875 -1.03125 C 3.363281 -0.769531 3.898438 -0.640625 4.484375 -0.640625 Z M 4.484375 -0.640625 "/></g></g></g><g fill="#5271ff" fill-opacity="1"><g transform="translate(261.497387, 227.957064)"><g><path d="M 4.015625 -7.484375 C 4.972656 -7.484375 5.722656 -7.253906 6.265625 -6.796875 C 6.804688 -6.335938 7.078125 -5.710938 7.078125 -4.921875 C 7.078125 -4.117188 6.804688 -3.488281 6.265625 -3.03125 C 5.722656 -2.582031 4.972656 -2.359375 4.015625 -2.359375 L 2.015625 -2.359375 L 2.015625 0 L 1.21875 0 L 1.21875 -7.484375 Z M 4 -3.0625 C 4.738281 -3.0625 5.300781 -3.222656 5.6875 -3.546875 C 6.082031 -3.867188 6.28125 -4.328125 6.28125 -4.921875 C 6.28125 -5.523438 6.082031 -5.988281 5.6875 -6.3125 C 5.300781 -6.632812 4.738281 -6.796875 4 -6.796875 L 2.015625 -6.796875 L 2.015625 -3.0625 Z M 4 -3.0625 "/></g></g></g><path fill="#ffffff" d="M 40.78125 213.222656 C 40.804688 211.777344 41.035156 209.957031 41.441406 207.675781 L 46.457031 179.996094 C 48.058594 171.175781 47.667969 168.367188 54.855469 167.472656 L 54.855469 171.175781 C 54.300781 171.804688 53.960938 172.621094 53.960938 173.53125 C 53.960938 175.476562 55.542969 177.058594 57.488281 177.058594 C 59.441406 177.058594 61.023438 175.476562 61.023438 173.53125 C 61.023438 172.667969 60.714844 171.875 60.199219 171.257812 L 60.199219 167.128906 C 62.585938 167.066406 65.449219 167.054688 68.894531 167.054688 C 72.339844 167.054688 75.203125 167.0625 77.589844 167.128906 L 77.589844 171.265625 C 77.074219 171.875 76.765625 172.667969 76.765625 173.53125 C 76.765625 175.476562 78.34375 177.058594 80.300781 177.058594 C 82.246094 177.058594 83.828125 175.476562 83.828125 173.53125 C 83.828125 172.621094 83.492188 171.804688 82.933594 171.175781 L 82.933594 167.472656 C 90.125 168.367188 89.730469 171.175781 91.332031 179.996094 L 92.375 185.773438 L 90.777344 190.640625 C 88.339844 198.015625 82.0625 202.027344 74.511719 202.878906 C 67.59375 203.664062 60.234375 204.554688 53.507812 206.390625 C 49.039062 207.621094 43.898438 209.558594 40.78125 213.222656 Z M 40.78125 213.222656 " fill-opacity="1" fill-rule="evenodd"/><path fill="#5271ff" d="M 63.007812 218.816406 L 53.09375 218.816406 C 47.976562 218.816406 44.578125 219.070312 42.667969 217.980469 C 40.507812 222.296875 41.089844 225.183594 41.089844 229.492188 L 39.679688 229.492188 C 39.679688 223.902344 39.042969 220.507812 42.332031 215.777344 C 46.605469 209.628906 59.011719 207.445312 74.820312 205.65625 C 87.808594 204.179688 92.125 195.429688 93.421875 191.511719 L 96.347656 207.671875 C 98.566406 219.914062 95.351562 218.824219 84.699219 218.824219 L 74.785156 218.816406 L 75.164062 222.289062 C 82.671875 223 88.070312 224.964844 88.070312 227.265625 C 88.070312 230.167969 79.480469 232.523438 68.894531 232.523438 C 58.308594 232.523438 49.71875 230.167969 49.71875 227.265625 C 49.71875 224.964844 55.117188 223 62.625 222.289062 Z M 63.007812 218.816406 " fill-opacity="1" fill-rule="evenodd"/><g clip-path="url(#beb22338dc)"><path fill="#5271ff" d="M 68.203125 153.558594 L 69.585938 153.558594 C 76.417969 153.558594 82.007812 159.152344 82.007812 165.992188 C 82.007812 169.464844 82.007812 169.585938 82.007812 173.058594 C 82.007812 174.023438 81.21875 174.804688 80.265625 174.804688 C 79.300781 174.804688 78.519531 174.023438 78.519531 173.058594 L 78.519531 166.847656 C 78.519531 161.542969 74.183594 157.214844 68.894531 157.214844 C 63.609375 157.214844 59.273438 161.542969 59.273438 166.847656 C 59.273438 170.027344 59.273438 169.875 59.273438 173.058594 C 59.273438 174.019531 58.492188 174.804688 57.527344 174.804688 C 56.574219 174.804688 55.785156 174.019531 55.785156 173.058594 C 55.785156 169.582031 55.785156 169.464844 55.785156 165.988281 C 55.78125 159.152344 61.378906 153.558594 68.203125 153.558594 Z M 68.203125 153.558594 " fill-opacity="1" fill-rule="evenodd"/></g><g clip-path="url(#9eb1af68ee)"><path fill="#5271ff" d="M 39.679688 229.496094 C 38.308594 229.605469 35.109375 229.550781 35.070312 230.414062 L 31.890625 238.699219 C 30.964844 239.238281 29.875 239.972656 29.777344 240.5625 C 29.695312 241.046875 29.785156 242.589844 30.066406 244.375 C 32.683594 243.21875 36.019531 242.5 39.679688 242.417969 L 39.679688 239.199219 C 39.035156 238.925781 38.59375 238.28125 38.59375 237.542969 L 38.59375 233.988281 C 38.59375 233.253906 39.035156 232.617188 39.679688 232.34375 Z M 30.289062 245.621094 C 30.636719 247.359375 31.152344 249.132812 31.863281 250.242188 C 33.328125 252.554688 36.097656 254.800781 40.378906 254.726562 C 44.660156 254.800781 47.429688 252.554688 48.894531 250.242188 C 49.605469 249.136719 50.121094 247.359375 50.476562 245.621094 C 47.855469 244.386719 44.304688 243.621094 40.378906 243.621094 C 36.464844 243.621094 32.902344 244.382812 30.289062 245.621094 Z M 50.695312 244.375 C 50.972656 242.59375 51.074219 241.046875 50.992188 240.566406 C 50.882812 239.976562 49.792969 239.238281 48.867188 238.703125 L 45.6875 230.417969 C 45.367188 229.605469 42.453125 229.605469 41.085938 229.496094 L 41.085938 232.34375 C 41.722656 232.617188 42.175781 233.253906 42.175781 233.992188 L 42.175781 237.546875 C 42.175781 238.285156 41.722656 238.929688 41.085938 239.203125 L 41.085938 242.421875 C 44.742188 242.503906 48.074219 243.21875 50.695312 244.375 Z M 50.695312 244.375 " fill-opacity="1" fill-rule="evenodd"/></g><path fill="#5271ff" d="M 40.378906 233.289062 C 40.769531 233.289062 41.089844 233.605469 41.089844 233.988281 L 41.089844 237.535156 C 41.089844 237.917969 40.769531 238.234375 40.378906 238.234375 C 39.996094 238.234375 39.679688 237.917969 39.679688 237.535156 L 39.679688 233.988281 C 39.679688 233.605469 39.996094 233.289062 40.378906 233.289062 Z M 40.378906 233.289062 " fill-opacity="1" fill-rule="evenodd"/></svg>