<svg xmlns="http://www.w3.org/2000/svg" xmlns:xlink="http://www.w3.org/1999/xlink" width="250" zoomAndPan="magnify" viewBox="0 0 187.5 37.5" height="50" preserveAspectRatio="xMidYMid meet" version="1.0"><defs><g/><clipPath id="698f43042e"><path d="M 0.988281 0 L 186.019531 0 L 186.019531 37.007812 L 0.988281 37.007812 Z M 0.988281 0 " clip-rule="nonzero"/></clipPath><clipPath id="6171c9e6bf"><path d="M 10.199219 5.78125 L 37.101562 5.78125 L 37.101562 31.324219 L 10.199219 31.324219 Z M 10.199219 5.78125 " clip-rule="nonzero"/></clipPath><clipPath id="8868f06195"><path d="M 12.425781 5.78125 L 34.875 5.78125 C 35.464844 5.78125 36.03125 6.015625 36.449219 6.433594 C 36.867188 6.851562 37.101562 7.417969 37.101562 8.007812 L 37.101562 29.097656 C 37.101562 29.6875 36.867188 30.253906 36.449219 30.671875 C 36.03125 31.089844 35.464844 31.324219 34.875 31.324219 L 12.425781 31.324219 C 11.835938 31.324219 11.269531 31.089844 10.851562 30.671875 C 10.433594 30.253906 10.199219 29.6875 10.199219 29.097656 L 10.199219 8.007812 C 10.199219 7.417969 10.433594 6.851562 10.851562 6.433594 C 11.269531 6.015625 11.835938 5.78125 12.425781 5.78125 Z M 12.425781 5.78125 " clip-rule="nonzero"/></clipPath><clipPath id="2bfd81836b"><path d="M 13.5625 12 L 31 12 L 31 25.925781 L 13.5625 25.925781 Z M 13.5625 12 " clip-rule="nonzero"/></clipPath><clipPath id="69f7b81a24"><path d="M 13.5625 12 L 30 12 L 30 25.925781 L 13.5625 25.925781 Z M 13.5625 12 " clip-rule="nonzero"/></clipPath><clipPath id="e9badd2acd"><path d="M 17 9.195312 L 25 9.195312 L 25 15 L 17 15 Z M 17 9.195312 " clip-rule="nonzero"/></clipPath><clipPath id="b9d293fbe2"><path d="M 30 12 L 33.871094 12 L 33.871094 15 L 30 15 Z M 30 12 " clip-rule="nonzero"/></clipPath><clipPath id="0289562c2a"><path d="M 31 19 L 33.871094 19 L 33.871094 22 L 31 22 Z M 31 19 " clip-rule="nonzero"/></clipPath><clipPath id="20ff9c15fe"><path d="M 31 23 L 33.871094 23 L 33.871094 25.925781 L 31 25.925781 Z M 31 23 " clip-rule="nonzero"/></clipPath></defs><g clip-path="url(#698f43042e)"><path fill="#ffffff" d="M 0.988281 0 L 186.511719 0 L 186.511719 37.105469 L 0.988281 37.105469 Z M 0.988281 0 " fill-opacity="1" fill-rule="nonzero"/><path fill="#ffffff" d="M 0.988281 0 L 186.511719 0 L 186.511719 37.105469 L 0.988281 37.105469 Z M 0.988281 0 " fill-opacity="1" fill-rule="nonzero"/></g><g clip-path="url(#6171c9e6bf)"><g clip-path="url(#8868f06195)"><path fill="#00025d" d="M 10.199219 5.78125 L 37.101562 5.78125 L 37.101562 31.324219 L 10.199219 31.324219 Z M 10.199219 5.78125 " fill-opacity="1" fill-rule="nonzero"/></g></g><g clip-path="url(#2bfd81836b)"><path fill="#ff66c4" d="M 20.980469 12.417969 L 28.824219 12.417969 C 29.339844 12.417969 29.761719 12.84375 29.761719 13.363281 C 29.761719 13.882812 29.339844 14.308594 28.824219 14.308594 L 25.824219 14.308594 C 25.308594 14.308594 24.886719 14.734375 24.886719 15.253906 C 24.886719 15.773438 25.308594 16.199219 25.824219 16.199219 L 28.136719 16.199219 C 28.652344 16.199219 29.074219 16.625 29.074219 17.144531 C 29.074219 17.664062 28.652344 18.089844 28.136719 18.089844 L 25.214844 18.089844 C 24.695312 18.089844 24.273438 18.511719 24.273438 19.03125 C 24.273438 19.554688 24.695312 19.980469 25.214844 19.980469 L 29.324219 19.980469 C 29.84375 19.980469 30.265625 20.402344 30.265625 20.925781 C 30.265625 21.445312 29.84375 21.867188 29.324219 21.867188 L 27.265625 21.867188 C 26.75 21.867188 26.328125 22.296875 26.328125 22.8125 C 26.328125 23.332031 26.75 23.761719 27.265625 23.761719 L 28.472656 23.761719 C 28.988281 23.761719 29.410156 24.183594 29.410156 24.703125 C 29.410156 25.226562 28.988281 25.648438 28.472656 25.648438 L 26.394531 25.648438 C 26.375 25.648438 26.355469 25.648438 26.332031 25.648438 C 25.941406 25.65625 25.476562 25.644531 24.9375 25.644531 L 17.027344 25.644531 C 14.363281 25.644531 13.558594 25.921875 14.113281 22.796875 L 15.953125 12.417969 Z M 18.039062 13.121094 C 18.59375 13.121094 19.042969 13.574219 19.042969 14.132812 C 19.042969 14.691406 18.59375 15.144531 18.039062 15.144531 C 17.484375 15.144531 17.035156 14.691406 17.035156 14.132812 C 17.035156 13.574219 17.484375 13.121094 18.039062 13.121094 Z M 23.921875 13.121094 C 24.476562 13.121094 24.925781 13.574219 24.925781 14.132812 C 24.925781 14.691406 24.476562 15.144531 23.921875 15.144531 C 23.371094 15.144531 22.921875 14.691406 22.921875 14.132812 C 22.921875 13.574219 23.371094 13.121094 23.921875 13.121094 Z M 23.921875 13.121094 " fill-opacity="1" fill-rule="evenodd"/><path fill="#cb6ce6" d="M 25.890625 18.089844 L 25.214844 18.089844 C 24.699219 18.089844 24.273438 18.511719 24.273438 19.03125 C 24.273438 19.550781 24.699219 19.980469 25.214844 19.980469 L 29.328125 19.980469 C 29.84375 19.980469 30.265625 20.402344 30.265625 20.925781 C 30.265625 21.445312 29.84375 21.867188 29.328125 21.867188 L 27.265625 21.867188 C 26.75 21.867188 26.328125 22.296875 26.328125 22.8125 C 26.328125 23.332031 26.75 23.757812 27.265625 23.757812 L 28.472656 23.757812 C 28.988281 23.757812 29.410156 24.183594 29.410156 24.703125 C 29.410156 25.222656 28.988281 25.648438 28.472656 25.648438 L 26.394531 25.648438 C 26.375 25.648438 26.355469 25.648438 26.332031 25.648438 C 25.941406 25.65625 25.476562 25.644531 24.9375 25.644531 L 17.027344 25.644531 C 14.363281 25.644531 13.558594 25.921875 14.113281 22.796875 L 15.953125 12.417969 C 17.007812 17.742188 22.191406 18.089844 25.890625 18.089844 Z M 25.890625 18.089844 " fill-opacity="1" fill-rule="evenodd"/></g><g clip-path="url(#69f7b81a24)"><path fill="#8c52ff" d="M 27.148438 21.875 C 26.6875 21.933594 26.328125 22.332031 26.328125 22.8125 C 26.328125 23.332031 26.75 23.757812 27.265625 23.757812 L 28.472656 23.757812 C 28.988281 23.757812 29.410156 24.183594 29.410156 24.703125 C 29.410156 25.222656 28.988281 25.648438 28.472656 25.648438 L 26.394531 25.648438 C 26.375 25.648438 26.355469 25.648438 26.332031 25.644531 C 25.941406 25.65625 25.480469 25.644531 24.9375 25.644531 L 17.027344 25.644531 C 14.363281 25.644531 13.558594 25.921875 14.113281 22.796875 L 15.953125 12.417969 C 16.851562 19.527344 19.566406 21.875 27.148438 21.875 Z M 27.148438 21.875 " fill-opacity="1" fill-rule="evenodd"/><path fill="#5e17eb" d="M 27.265625 23.757812 L 28.472656 23.757812 C 28.988281 23.757812 29.410156 24.183594 29.410156 24.703125 C 29.410156 25.222656 28.988281 25.648438 28.472656 25.648438 L 26.394531 25.648438 C 26.375 25.648438 26.355469 25.648438 26.332031 25.644531 C 25.941406 25.65625 25.476562 25.644531 24.9375 25.644531 L 17.027344 25.644531 C 14.363281 25.644531 13.558594 25.921875 14.113281 22.796875 L 15.953125 12.417969 C 15.769531 15.46875 15.433594 21.859375 18.988281 23.019531 C 21.960938 23.988281 27.265625 23.757812 27.265625 23.757812 Z M 27.265625 23.757812 " fill-opacity="1" fill-rule="evenodd"/></g><g clip-path="url(#e9badd2acd)"><path fill="#5e17eb" d="M 20.804688 9.199219 L 21.160156 9.199219 C 22.929688 9.199219 24.375 10.65625 24.375 12.4375 C 24.375 13.34375 24.375 13.035156 24.375 13.941406 C 24.375 14.1875 24.171875 14.394531 23.921875 14.394531 C 23.675781 14.394531 23.472656 14.1875 23.472656 13.941406 C 23.472656 13.109375 23.472656 13.488281 23.472656 12.660156 C 23.472656 11.28125 22.351562 10.152344 20.980469 10.152344 C 19.609375 10.152344 18.488281 11.28125 18.488281 12.660156 C 18.488281 13.488281 18.488281 13.109375 18.488281 13.941406 C 18.488281 14.1875 18.289062 14.394531 18.039062 14.394531 C 17.789062 14.394531 17.589844 14.1875 17.589844 13.941406 C 17.589844 13.035156 17.589844 13.34375 17.589844 12.4375 C 17.589844 10.65625 19.035156 9.199219 20.804688 9.199219 Z M 20.804688 9.199219 " fill-opacity="1" fill-rule="evenodd"/></g><g clip-path="url(#b9d293fbe2)"><path fill="#ff66c4" d="M 32.40625 12.417969 L 31.648438 12.417969 C 31.132812 12.417969 30.707031 12.84375 30.707031 13.363281 C 30.707031 13.882812 31.132812 14.308594 31.648438 14.308594 L 32.40625 14.308594 C 32.921875 14.308594 33.34375 13.882812 33.34375 13.363281 C 33.34375 12.84375 32.921875 12.417969 32.40625 12.417969 Z M 32.40625 12.417969 " fill-opacity="1" fill-rule="evenodd"/></g><path fill="#ff66c4" d="M 31.878906 16.199219 L 31.121094 16.199219 C 30.605469 16.199219 30.179688 16.625 30.179688 17.144531 C 30.179688 17.664062 30.605469 18.089844 31.121094 18.089844 L 31.878906 18.089844 C 32.394531 18.089844 32.816406 17.664062 32.816406 17.144531 C 32.816406 16.625 32.394531 16.199219 31.878906 16.199219 Z M 31.878906 16.199219 " fill-opacity="1" fill-rule="evenodd"/><g clip-path="url(#0289562c2a)"><path fill="#cb6ce6" d="M 32.929688 19.980469 L 32.175781 19.980469 C 31.65625 19.980469 31.234375 20.402344 31.234375 20.925781 C 31.234375 21.445312 31.65625 21.867188 32.175781 21.867188 L 32.929688 21.867188 C 33.445312 21.867188 33.871094 21.445312 33.871094 20.925781 C 33.871094 20.402344 33.445312 19.980469 32.929688 19.980469 Z M 32.929688 19.980469 " fill-opacity="1" fill-rule="evenodd"/></g><g clip-path="url(#20ff9c15fe)"><path fill="#5e17eb" d="M 32.929688 23.757812 L 32.175781 23.757812 C 31.65625 23.757812 31.234375 24.183594 31.234375 24.703125 C 31.234375 25.222656 31.65625 25.648438 32.175781 25.648438 L 32.929688 25.648438 C 33.445312 25.648438 33.871094 25.222656 33.871094 24.703125 C 33.871094 24.183594 33.445312 23.757812 32.929688 23.757812 Z M 32.929688 23.757812 " fill-opacity="1" fill-rule="evenodd"/></g><g fill="#00025d" fill-opacity="1"><g transform="translate(52.285156, 20.362243)"><g><path d="M 2.207031 0 C 2.800781 0 3.292969 -0.460938 3.292969 -1.054688 L 3.292969 -3.96875 L 6.488281 -3.96875 C 7.082031 -3.96875 7.511719 -4.464844 7.511719 -4.976562 C 7.511719 -5.484375 7.082031 -5.945312 6.488281 -5.945312 L 3.292969 -5.945312 L 3.292969 -8.566406 L 7.5625 -8.566406 C 8.171875 -8.566406 8.613281 -9.042969 8.613281 -9.488281 C 8.613281 -10.066406 8.152344 -10.542969 7.5625 -10.542969 L 2.207031 -10.542969 C 1.433594 -10.542969 1.136719 -9.964844 1.136719 -9.503906 L 1.136719 -1.054688 C 1.136719 -0.476562 1.613281 0 2.207031 0 Z M 2.207031 0 "/></g></g></g><g fill="#00025d" fill-opacity="1"><g transform="translate(60.981935, 20.362243)"><g><path d="M 4.117188 -9.503906 C 4.101562 -9.882812 3.9375 -10.164062 3.707031 -10.328125 C 3.34375 -10.59375 2.832031 -10.609375 2.453125 -10.378906 L 0.726562 -9.339844 C 0.199219 -9.027344 0.03125 -8.351562 0.347656 -7.839844 C 0.609375 -7.394531 1.105469 -7.246094 1.582031 -7.414062 L 1.976562 -7.675781 L 1.976562 -1.085938 C 1.976562 -0.476562 2.472656 0 3.082031 0 C 3.691406 0 4.117188 -0.476562 4.117188 -1.085938 Z M 4.117188 -9.503906 "/></g></g></g><g fill="#00025d" fill-opacity="1"><g transform="translate(66.022113, 20.362243)"><g/></g></g><g fill="#00025d" fill-opacity="1"><g transform="translate(69.991666, 20.362243)"><g><path d="M 5.996094 0.148438 C 7.378906 0.148438 8.550781 -0.261719 9.652344 -1.25 C 10.097656 -1.648438 10.195312 -2.273438 9.867188 -2.734375 C 9.519531 -3.195312 8.8125 -3.144531 8.351562 -2.800781 C 7.691406 -2.222656 6.933594 -1.894531 5.996094 -1.894531 C 4.183594 -1.894531 2.832031 -3.425781 2.832031 -5.269531 C 2.832031 -7.3125 4.300781 -8.664062 6.027344 -8.664062 C 6.933594 -8.664062 7.691406 -8.300781 8.351562 -7.742188 C 8.828125 -7.394531 9.519531 -7.347656 9.867188 -7.808594 C 10.195312 -8.269531 10.097656 -8.878906 9.652344 -9.273438 C 8.550781 -10.277344 7.414062 -10.707031 5.914062 -10.707031 C 2.933594 -10.707031 0.691406 -8.070312 0.691406 -5.253906 C 0.691406 -2.304688 3.097656 0.148438 5.996094 0.148438 Z M 5.996094 0.148438 "/></g></g></g><g fill="#00025d" fill-opacity="1"><g transform="translate(80.730872, 20.362243)"><g><path d="M 6.144531 0.148438 C 9.09375 0.148438 11.644531 -2.257812 11.644531 -5.253906 C 11.644531 -8.253906 9.09375 -10.707031 6.144531 -10.707031 C 3.164062 -10.707031 0.691406 -8.253906 0.691406 -5.253906 C 0.691406 -2.257812 3.164062 0.148438 6.144531 0.148438 Z M 6.144531 -1.878906 C 4.25 -1.878906 2.832031 -3.3125 2.832031 -5.253906 C 2.832031 -7.230469 4.25 -8.679688 6.144531 -8.679688 C 8.054688 -8.679688 9.488281 -7.230469 9.488281 -5.253906 C 9.488281 -3.3125 8.054688 -1.878906 6.144531 -1.878906 Z M 6.144531 -1.878906 "/></g></g></g><g fill="#00025d" fill-opacity="1"><g transform="translate(93.051311, 20.362243)"><g><path d="M 2.207031 0 C 2.800781 0 3.292969 -0.476562 3.292969 -1.054688 L 3.292969 -6.769531 L 5.648438 -3.96875 C 6.078125 -3.523438 6.589844 -3.523438 7.015625 -3.953125 L 9.355469 -6.769531 L 9.355469 -1.054688 C 9.355469 -0.476562 9.867188 0 10.445312 0 C 11.035156 0 11.515625 -0.476562 11.515625 -1.054688 L 11.515625 -9.488281 C 11.515625 -10.082031 11.035156 -10.542969 10.445312 -10.542969 C 10.230469 -10.542969 9.917969 -10.476562 9.667969 -10.246094 L 6.34375 -6.308594 L 2.980469 -10.230469 C 2.765625 -10.460938 2.472656 -10.558594 2.191406 -10.558594 C 1.648438 -10.558594 1.136719 -10.148438 1.136719 -9.488281 L 1.136719 -1.054688 C 1.136719 -0.476562 1.613281 0 2.207031 0 Z M 2.207031 0 "/></g></g></g><g fill="#00025d" fill-opacity="1"><g transform="translate(105.701172, 20.362243)"><g><path d="M 2.207031 0 C 2.800781 0 3.292969 -0.476562 3.292969 -1.054688 L 3.292969 -2.703125 L 5.105469 -2.703125 C 7.3125 -2.703125 9.125 -4.347656 9.125 -6.539062 C 9.125 -8.761719 7.332031 -10.542969 5.105469 -10.542969 L 2.207031 -10.542969 C 1.613281 -10.542969 1.136719 -10.066406 1.136719 -9.488281 L 1.136719 -1.054688 C 1.136719 -0.460938 1.613281 0 2.207031 0 Z M 3.292969 -8.566406 L 5.140625 -8.566406 C 6.242188 -8.566406 6.96875 -7.710938 6.96875 -6.605469 C 6.96875 -5.5 6.242188 -4.679688 5.140625 -4.679688 L 3.292969 -4.679688 Z M 3.292969 -8.566406 "/></g></g></g><g fill="#00025d" fill-opacity="1"><g transform="translate(115.172097, 20.362243)"><g><path d="M 9.042969 -10.542969 C 8.46875 -10.542969 7.972656 -10.082031 7.972656 -9.488281 L 7.972656 -4.480469 C 7.972656 -3.0625 6.851562 -1.894531 5.519531 -1.894531 C 4.070312 -1.894531 2.980469 -3.046875 2.980469 -4.464844 L 2.980469 -9.472656 C 2.980469 -10.066406 2.503906 -10.542969 1.910156 -10.542969 C 1.316406 -10.542969 0.855469 -10.066406 0.855469 -9.472656 L 0.855469 -4.578125 C 0.855469 -2.007812 2.898438 0.148438 5.5 0.148438 C 7.957031 0.148438 10.128906 -2.007812 10.128906 -4.578125 L 10.128906 -9.488281 C 10.128906 -10.082031 9.636719 -10.542969 9.042969 -10.542969 Z M 9.042969 -10.542969 "/></g></g></g><g fill="#00025d" fill-opacity="1"><g transform="translate(126.141894, 20.362243)"><g><path d="M 1.152344 -10.542969 C 0.558594 -10.542969 0.0820312 -10.066406 0.0820312 -9.488281 C 0.0820312 -9.027344 0.558594 -8.550781 1.152344 -8.550781 L 3.3125 -8.550781 L 3.3125 -1.054688 C 3.3125 -0.460938 3.789062 0 4.382812 0 C 4.976562 0 5.46875 -0.460938 5.46875 -1.054688 L 5.46875 -8.550781 L 7.625 -8.550781 C 8.21875 -8.550781 8.699219 -9.011719 8.699219 -9.488281 C 8.699219 -10.066406 8.21875 -10.542969 7.625 -10.542969 Z M 1.152344 -10.542969 "/></g></g></g><g fill="#00025d" fill-opacity="1"><g transform="translate(134.937504, 20.362243)"><g><path d="M 7.757812 0 C 8.335938 0 8.8125 -0.460938 8.8125 -1.054688 C 8.8125 -1.484375 8.335938 -1.976562 7.757812 -1.976562 L 3.292969 -1.976562 L 3.292969 -4.316406 L 6.835938 -4.316406 C 7.445312 -4.316406 7.859375 -4.777344 7.859375 -5.335938 C 7.859375 -5.863281 7.445312 -6.292969 6.835938 -6.292969 L 3.292969 -6.292969 L 3.292969 -8.566406 L 7.757812 -8.566406 C 8.335938 -8.566406 8.8125 -9.027344 8.8125 -9.488281 C 8.8125 -10.066406 8.335938 -10.542969 7.757812 -10.542969 L 2.207031 -10.542969 C 1.597656 -10.542969 1.136719 -10.066406 1.136719 -9.472656 L 1.136719 -1.054688 C 1.136719 -0.476562 1.582031 -0.0507812 2.140625 0 Z M 7.757812 0 "/></g></g></g><g fill="#00025d" fill-opacity="1"><g transform="translate(144.161361, 20.362243)"><g><path d="M 7.460938 -3.738281 C 8.449219 -4.332031 9.125 -5.320312 9.125 -6.769531 C 9.125 -8.863281 7.3125 -10.542969 5.105469 -10.542969 L 2.207031 -10.542969 C 1.613281 -10.542969 1.136719 -10.066406 1.136719 -9.488281 L 1.136719 -1.054688 C 1.136719 -0.476562 1.613281 0 2.207031 0 C 2.800781 0 3.292969 -0.476562 3.292969 -1.054688 L 3.292969 -3.082031 L 4.777344 -3.082031 C 4.976562 -3.082031 5.15625 -3.082031 5.335938 -3.097656 L 7.296875 -0.378906 C 7.710938 0.199219 8.433594 0.132812 8.894531 -0.214844 C 9.308594 -0.527344 9.371094 -1.121094 8.910156 -1.746094 Z M 3.292969 -8.566406 L 5.140625 -8.566406 C 6.226562 -8.566406 6.96875 -7.773438 6.96875 -6.769531 C 6.96875 -5.78125 6.226562 -5.058594 5.121094 -5.058594 L 3.292969 -5.058594 Z M 3.292969 -8.566406 "/></g></g></g><g fill="#dd54a8" fill-opacity="1"><g transform="translate(72.46204, 28.793483)"><g><path d="M 1.71875 -0.25 L 1.71875 0 L 0.296875 0 L 0.296875 -1.96875 L 1.6875 -1.96875 L 1.6875 -1.71875 L 0.578125 -1.71875 L 0.578125 -1.125 L 1.5625 -1.125 L 1.5625 -0.875 L 0.578125 -0.875 L 0.578125 -0.25 Z M 1.71875 -0.25 "/></g></g></g><g fill="#dd54a8" fill-opacity="1"><g transform="translate(76.587035, 28.793483)"><g><path d="M 0.6875 -1.71875 L 0.015625 -1.71875 L 0.015625 -1.96875 L 1.640625 -1.96875 L 1.640625 -1.71875 L 0.96875 -1.71875 L 0.96875 0 L 0.6875 0 Z M 0.6875 -1.71875 "/></g></g></g><g fill="#dd54a8" fill-opacity="1"><g transform="translate(80.47917, 28.793483)"><g><path d="M 1.984375 -1.96875 L 1.984375 0 L 1.703125 0 L 1.703125 -0.875 L 0.578125 -0.875 L 0.578125 0 L 0.296875 0 L 0.296875 -1.96875 L 0.578125 -1.96875 L 0.578125 -1.125 L 1.703125 -1.125 L 1.703125 -1.96875 Z M 1.984375 -1.96875 "/></g></g></g><g fill="#dd54a8" fill-opacity="1"><g transform="translate(85.002548, 28.793483)"><g><path d="M 0.296875 -1.96875 L 0.578125 -1.96875 L 0.578125 0 L 0.296875 0 Z M 0.296875 -1.96875 "/></g></g></g><g fill="#dd54a8" fill-opacity="1"><g transform="translate(88.117554, 28.793483)"><g><path d="M 1.1875 0.015625 C 0.988281 0.015625 0.804688 -0.0234375 0.640625 -0.109375 C 0.484375 -0.191406 0.359375 -0.3125 0.265625 -0.46875 C 0.179688 -0.625 0.140625 -0.796875 0.140625 -0.984375 C 0.140625 -1.171875 0.179688 -1.34375 0.265625 -1.5 C 0.359375 -1.65625 0.484375 -1.773438 0.640625 -1.859375 C 0.804688 -1.941406 0.988281 -1.984375 1.1875 -1.984375 C 1.382812 -1.984375 1.5625 -1.941406 1.71875 -1.859375 C 1.875 -1.773438 2 -1.65625 2.09375 -1.5 C 2.1875 -1.34375 2.234375 -1.171875 2.234375 -0.984375 C 2.234375 -0.796875 2.1875 -0.625 2.09375 -0.46875 C 2 -0.3125 1.875 -0.191406 1.71875 -0.109375 C 1.5625 -0.0234375 1.382812 0.015625 1.1875 0.015625 Z M 1.1875 -0.234375 C 1.332031 -0.234375 1.460938 -0.265625 1.578125 -0.328125 C 1.691406 -0.390625 1.78125 -0.476562 1.84375 -0.59375 C 1.914062 -0.707031 1.953125 -0.835938 1.953125 -0.984375 C 1.953125 -1.128906 1.914062 -1.257812 1.84375 -1.375 C 1.78125 -1.488281 1.691406 -1.578125 1.578125 -1.640625 C 1.460938 -1.703125 1.332031 -1.734375 1.1875 -1.734375 C 1.039062 -1.734375 0.90625 -1.703125 0.78125 -1.640625 C 0.664062 -1.578125 0.578125 -1.488281 0.515625 -1.375 C 0.453125 -1.257812 0.421875 -1.128906 0.421875 -0.984375 C 0.421875 -0.835938 0.453125 -0.707031 0.515625 -0.59375 C 0.578125 -0.476562 0.664062 -0.390625 0.78125 -0.328125 C 0.90625 -0.265625 1.039062 -0.234375 1.1875 -0.234375 Z M 1.1875 -0.234375 "/></g></g></g><g fill="#dd54a8" fill-opacity="1"><g transform="translate(92.719487, 28.793483)"><g><path d="M 1.0625 -1.96875 C 1.320312 -1.96875 1.523438 -1.90625 1.671875 -1.78125 C 1.816406 -1.664062 1.890625 -1.5 1.890625 -1.28125 C 1.890625 -1.070312 1.816406 -0.90625 1.671875 -0.78125 C 1.523438 -0.65625 1.320312 -0.59375 1.0625 -0.59375 L 0.578125 -0.59375 L 0.578125 0 L 0.296875 0 L 0.296875 -1.96875 Z M 1.046875 -0.84375 C 1.234375 -0.84375 1.375 -0.878906 1.46875 -0.953125 C 1.5625 -1.023438 1.609375 -1.132812 1.609375 -1.28125 C 1.609375 -1.425781 1.5625 -1.535156 1.46875 -1.609375 C 1.375 -1.679688 1.234375 -1.71875 1.046875 -1.71875 L 0.578125 -1.71875 L 0.578125 -0.84375 Z M 1.046875 -0.84375 "/></g></g></g><g fill="#dd54a8" fill-opacity="1"><g transform="translate(96.990368, 28.793483)"><g><path d="M 0.296875 -1.96875 L 0.578125 -1.96875 L 0.578125 0 L 0.296875 0 Z M 0.296875 -1.96875 "/></g></g></g><g fill="#dd54a8" fill-opacity="1"><g transform="translate(100.105374, 28.793483)"><g><path d="M 1.546875 -0.484375 L 0.5 -0.484375 L 0.28125 0 L 0 0 L 0.890625 -1.96875 L 1.171875 -1.96875 L 2.0625 0 L 1.765625 0 Z M 1.453125 -0.71875 L 1.03125 -1.6875 L 0.609375 -0.71875 Z M 1.453125 -0.71875 "/></g></g></g></svg>